<svg xmlns="http://www.w3.org/2000/svg" version="1.1" width="600px" height="600px" viewBox="0 0 200 200" style="overflow:hidden!important;"><g id="svga-group-wrapper"><g id="svga-group-backs-single"><path id="SvgjsPath11808" d="M0 0h200v200H0V0z" fill="#323636" stroke-width="none" opacity="1"></path></g><g id="svga-group-humanwrap-move" transform="matrix(1,0,0,1,0,-4)"><g id="svga-group-humanwrap"><g id="svga-group-hair-back-move" transform="matrix(0.9986295346632303,0.05233595798588117,-0.05233595798588117,0.9986295346632303,7.725760441629731,-5.034878324756505)"><g id="svga-group-hair-back" transform="matrix(0.9599996000000002,0,0,0.9997996000000002,4.115197248973061,0.02160796961514677)"><path id="SvgjsPath12035" d="M134.2 50.7s5.7 1.1 10.5 12 2.8 23.4 2.2 32.1-2 36-10.9 49.8-13.1 14.6-23.4 18.4c-10.3 3.7-36.5 2.6-47.6-7.4-11.1-10.1-6.5-26.9-3.7-33 2.8-6.2 72.9-71.9 72.9-71.9" fill="#9c623c" stroke-width="none" opacity="1"></path><path id="SvgjsPath12036" d="M71.2 121.7s-2.8 7.1-3.4 12c-.6 4.9 2.6 9.5 4.5 12.1 2.1 2.8 6 7.6 6.1 17.2.1 6 41.6-5.5 41.6-5.5 3.7-2.9 11.1-9.6 15.6-20.9 3.8-9.5 3.8-17.8 3.5-22.4-17.2 6.2-34.5 12.5-51.7 18.7l-2.8-4.3-13.4-6.9z" fill="#955932" stroke-width="none" opacity="1"></path></g></g><g id="svga-group-humanbody-back"><path id="SvgjsPath11877" d="m168.5 219.5-1.7-21.5s.7-9-8.8-15.3-23.4-10.1-29.5-14.2c-6.1-4.1-9.2-4.5-9-16.9s.9-40.3.9-40.3H79.6s.7 27.9.9 40.3c.2 12.4-2.9 12.8-9 16.9-6.1 4.1-20 7.9-29.5 14.2S33.2 198 33.2 198l-1.6 21.5h136.9z" fill="#fbd5c0" stroke-width="none" opacity="1"></path></g><g id="svga-group-chinshadow-single"><path id="SvgjsPath11873" d="M100 160.9s9.1.44 19.5-7.32c-.01-.63-.01-1.28 0-1.98.2-12.4.9-40.3.9-40.3H79.6s.7 27.9.9 40.3c.01.7.01 1.36 0 1.98 10.4 7.76 19.5 7.32 19.5 7.32z" fill="#dc9f7d" stroke-width="none" opacity="0.65"></path></g><g id="svga-group-humanbody-front"><path id="SvgjsPath11878" d="M73.8 175.9c5.1 2.9 11.8 5.2 17.6 5.7.4 0 .4-.6.1-.7-2.8-1.1-5.9-1.7-8.8-2.6-2.9-.9-5.8-2-8.8-2.7-.1-.1-.3.2-.1.3zm35.2 6.2c5.3-.6 11.3-3 15.9-5.8.3-.2.1-.6-.2-.5-2.6.9-5.2 2-7.8 2.9-2.6.9-5.4 1.5-8 2.5-.5.1-.5.9.1.9z" fill="#dc9f7d" stroke-width="none" opacity="1"></path><path id="SvgjsPath11879" d="m168.4 219.4-2.1-21.4c0-2.2-.5-4.5-1.5-6.6-.9-2.1-2.3-3.9-3.9-5.5s-3.5-2.8-5.5-4c-2-1.2-4.1-2.2-6.2-3.1-4.2-1.9-8.6-3.6-12.9-5.4-2.2-.9-4.3-1.9-6.4-3-1.1-.6-2.1-1.2-3-1.9-1-.6-2-1.2-3-1.9s-2-1.5-2.8-2.6c-.8-1-1.3-2.2-1.7-3.4-.7-2.4-.8-4.8-.8-7.2 0-4.7.2-9.4.3-14.1.2-9.4.6-18.7.9-28l.6.6-20.4-.2-20.4-.1.3-.3.7 28c.1 4.7.3 9.3.4 14 0 2.4-.1 4.7-.8 7.1-.3 1.2-.9 2.3-1.6 3.3-.8 1-1.7 1.8-2.7 2.5s-2 1.3-2.9 2c-.9.6-1.9 1.3-3 1.9-2.1 1.2-4.2 2.1-6.4 3.1-4.3 1.9-8.6 3.6-12.8 5.6-2.1 1-4.2 2.1-6.1 3.2-2 1.2-3.8 2.4-5.4 4-1.6 1.6-2.9 3.4-3.8 5.4-.4 1-.8 2.1-1 3.1-.2 1.1-.4 2.2-.3 3.2v.2l-1.5 21.5-1-1.1 34 .1c11.3 0 22.7.1 34.1.2l34.2.3 34.4.5zm.2.2-34 .4-34.2.3c-11.4.1-22.9.2-34.4.2l-34.4.1h-1.1l.1-1.1 1.7-21.5v.1c-.1-5.1 2.2-9.8 5.7-13.3 1.7-1.7 3.8-3.1 5.8-4.3 2-1.2 4.2-2.2 6.3-3.2 4.3-2 8.7-3.7 13-5.4 2.1-.9 4.3-1.8 6.3-2.9 1-.5 1.9-1.1 3-1.8 1-.6 2-1.2 2.9-1.9.9-.6 1.8-1.4 2.4-2.2.7-.9 1.2-1.9 1.5-2.9.6-2.1.8-4.5.8-6.8 0-4.6-.1-9.3-.2-14l-.6-28v-.3h.3l20.4-.1 20.4-.2h.6v.6c-.1 9.3-.2 18.7-.4 28-.1 4.7-.2 9.4-.2 14 .1 2.3.2 4.6.8 6.7.3 1.1.8 2 1.4 2.9.6.8 1.4 1.6 2.4 2.2.9.6 1.9 1.3 2.9 1.9 1 .7 1.9 1.3 2.9 1.8 2 1.1 4.1 2.1 6.3 3 4.3 1.8 8.6 3.6 12.9 5.6 2.1 1 4.2 2.1 6.2 3.3 2 1.2 4 2.6 5.7 4.3 3.4 3.4 5.6 8.1 5.4 13v-.1l1.4 21.6zm-112.8-.4 1.9-13.8.1 13.8h-2zm88.6 0-1.9-13.8-.1 13.8h2z" fill="#cd865f" stroke-width="none" opacity="1"></path></g><g id="svga-group-clothes-single"><path id="SvgjsPath12009" d="M172 220s-1.3-17.2-2.6-22.7-4-12.6-5.1-13.4c-1.1-.9-1.9-.4-1.9-.4s-1.1-.9-4.5-3.4-18.5-7.2-20.4-8.5c-1.9-1.3-10.2-4.7-10.2-4.7l.2-2.3s-2.6-1.9-3.4-3.4c-.8-1.5-1.3-3.6-1.3-3.6l-.4-2.5s-.6 2-1 3.3-1 6.5-1.5 8.8c-.3 1.5-2.2 4.6-3.5 6.1-1.5 1.6-3.8 3-6.1 4.2-3.4 1.8-4.8 2.4-5.4 3.1-.6.7-.9 2.9-1.9 6l-1.1 2.6s-2.9-3.9-4.5-6.4c-1.6-2.5-3.1-3.4-4-3.4s-5.7.1-6.1-.2-1.8-1.7-2.4-2.8c-.7-1.1-3.4-8.1-4.1-9.5-.7-1.4-2-7.2-2.4-8.5-.3-1.3-.6-3.1-.6-3.1l-.4 1.1s-.8 3.4-1.7 4.9c-.8 1.5-3.4 3.4-3.4 3.4l.2 2.3s-8.3 3.4-10.2 4.7c-1.9 1.3-17 6-20.4 8.5s-4.5 3.4-4.5 3.4-.8-.4-1.9.4c-1.1.9-3.8 7.9-5.1 13.4S28 220 28 220" fill="#5f4a8c" stroke-width="none" opacity="1"></path><path id="SvgjsPath12010" d="M163.9 185.7c-.1-.4-.8-.2-.7.2 2.9 9.4 4.1 19.1 5.7 28.8 0 .2.4.1.4-.1.6-10-1.9-19.6-5.4-28.9zm-3.1-1.1c-2.3 4.8-3.6 10.2-3.9 15.5 0 .2.3.2.3 0 .8-5.4 2.1-10.3 3.9-15.5 0 0-.2-.1-.3 0zm-59.6 12.5c-.2-.1-.4-.2-.2-.4.3-.3-.1-.7-.4-.6-1 .4-.1 2.1.7 1.4.1-.1 0-.3-.1-.4zm-.4 16.4c0-.2-.2-.3-.4-.1-.6.5 0 1.6.7 1.3.1 0 .1-.2 0-.2-.1-.4-.3-.6-.3-1zm6.9-31.2c-.3 0-.7-.1-.7-.5 0-.2-.4-.3-.4-.1-.1.4 0 .7.3.9.3.2.7.2.9 0 .2-.1.1-.3-.1-.3zm-22.9-3.5c-2.3 1.4-4.4 3.4-6.4 5.2-1.9 1.9-4.1 3.8-5.4 6.2-.1.2.1.3.3.2 2.1-1.8 3.7-4 5.7-5.9 2-1.9 4.2-3.5 6.2-5.4.1-.1-.2-.4-.4-.3zm-45.5 5.6c1 7.4 3.8 14.6 5 22.1 0 .1.1.1.1 0-.4-7.2-1-15.8-4.7-22.1-.1-.3-.5-.2-.4 0zm-2.7.6c-4 7.9-6.2 17.4-6.2 26.2 0 .2.4.3.4.1 1.3-9.1 3.3-17.3 6.3-26 .2-.4-.3-.6-.5-.3zm93.5 4.3c-2.5-8.2-4.1-15.7-4.3-24.3 0-.3-.4-.3-.5 0-.7 7.7.5 16.3 3.7 23.5-2.5-3.1-5.3-6.1-8.1-8.8-2-1.9-4.2-4.1-7.2-2.9-.3.1-.2.6.2.6 3.5-.8 6.7 4.4 8.9 6.5 2.2 2.1 4.3 4.4 6.6 6.3.3.2.8-.1.6-.4.1-.2.2-.3.1-.5zm-12.8-14.1c3.4-3.2 5.9-8.9 4.8-13.7-.1-.2-.4-.2-.4.1-.3 2.4-.3 4.8-1.2 7.1-.8 2.3-2.1 4.4-3.5 6.3-.1.1.2.3.3.2zm12.4-3.9c8.6 4.8 18.3 8.1 27.5 11.5.3.1.5-.4.2-.5-8.4-4.8-17.8-9.7-27.4-11.9-.4-.1-.8.6-.3.9z" fill="#74629b" stroke-width="none" opacity="1"></path><path id="SvgjsPath12011" d="M158.3 201.6c-.2 2.9-.3 5.7-.3 8.6v4.3c.1 1.4.1 2.9.2 4.3.1-1.4.2-2.9.3-4.3l.3-4.3.6-8.5c.2-2.8.5-5.6 1-8.4.3-1.4.6-2.8 1-4.1.4-1.4.8-2.7 1.4-4.1-1.4 2.5-2.4 5.2-3.1 8-.9 2.8-1.2 5.6-1.4 8.5zm-51.2-20.3c.6 0 1.2.5 1.2 1.2s-.5 1.2-1.2 1.2-1.2-.5-1.2-1.2.6-1.2 1.2-1.2zm-6.2 14.4c.6 0 1.2.5 1.2 1.2s-.5 1.2-1.2 1.2-1.2-.5-1.2-1.2.6-1.2 1.2-1.2zm-.1 17.1c.6 0 1.2.5 1.2 1.2s-.5 1.2-1.2 1.2-1.2-.5-1.2-1.2.6-1.2 1.2-1.2zm15.7-31.9s.1-.1 0 0c.1-.1 0 0 0 0zm55 29.3c-.2-3.3-.5-6.6-.9-9.8-.4-3.3-1.3-6.5-2.3-9.7-.5-1.6-1.1-3.1-1.8-4.7-.4-.8-.7-1.5-1.2-2.3-.4-.5-.8-.8-1.3-1-.3-.1-.6-.2-.9-.2h-.4l-3.6-2.8c-.6-.5-1.4-1-2.1-1.4-.8-.4-1.5-.8-2.2-1.1-3-1.4-6.1-2.5-9.1-3.6l-4.6-1.7c-.8-.3-1.5-.6-2.2-.9-.2-.1-.4-.2-.5-.2-.1-.1-.3-.1-.5-.3-.4-.2-.8-.4-1.1-.6-2.8-1.4-5.7-2.5-8.6-3.7l.1-1.9c0-.2-.1-.4-.2-.5-.7-.5-1.4-1.1-2.1-1.7-.3-.3-.6-.6-.9-1-.3-.3-.5-.7-.7-1.1-.4-.8-.7-1.7-.9-2.6-.2-.9-.3-1.8-.5-2.7 0-.1-.1-.2-.2-.3-1-.8-2.2-.9-2.2-.9-.2 1.8.3 4.7.4 5.4 0 .2-.1.4-.1.6l-.7 4.9c-.1.8-.2 1.6-.4 2.4-.2.7-.5 1.5-.9 2.2-.8 1.4-1.6 2.8-2.7 4-2.3 2.3-5.3 3.6-8.2 5.1-.7.4-1.5.7-2.2 1.2-.4.2-.8.5-1 .9-.3.4-.4.8-.5 1.2-.5 1.6-.9 3.2-1.4 4.7l-.7 1.7-2.6-3.9c-1.1-1.5-1.9-3.3-3.6-4.6-.4-.3-.9-.6-1.5-.8-.3-.1-.7-.1-.9-.1h-.7l-2.8-.1c-.5 0-.9 0-1.4-.1-.2 0-.4 0-.6-.1-.1 0-.1-.1-.2-.2-.6-.6-1.2-1.3-1.7-2.1-.4-.6-.8-1.6-1.1-2.4l-1.1-2.6-2.1-5.2c-.6-1.7-1-3.6-1.5-5.4l-.5-1.6-.1-.3c.1-.2.2-.6.3-1.1.1-1 .2-4 .2-4s-2 .4-2.5.8c-.2.1-.5.3-.6.6l-.4 1.1v.1c-.2.8-.4 1.6-.7 2.3-.2.8-.5 1.5-.9 2.2-.3.6-.8 1.1-1.4 1.7-.6.5-1.2 1.1-1.8 1.5-.3.2-.4.6-.4.9l.2 1.6c-2.8 1.2-5.5 2.3-8.3 3.7-.4.2-.7.4-1.1.6l-.3.2-.2.1c-.1.1-.3.1-.5.2-.7.3-1.5.6-2.2.9l-4.6 1.7c-3.1 1.1-6.1 2.3-9.1 3.6-.8.3-1.5.7-2.2 1.1-.7.4-1.6.9-2.2 1.4l-3.5 2.8h-.4c-.3 0-.6.1-.9.2-.5.2-1 .5-1.3 1-.6.8-.9 1.6-1.2 2.3-.7 1.5-1.3 3.1-1.8 4.7-1 3.1-1.9 6.4-2.3 9.7-.4 3.3-.7 6.6-.9 9.8-.2 3.3-.4 6.6-.6 9.8h.2c.3-3.3.7-6.5 1.1-9.8.4-3.2.8-6.5 1.3-9.7.5-3.2 1.5-6.3 2.6-9.4l1.8-4.5c.3-.7.7-1.5 1.1-2 .1-.2.4-.4.6-.4.1 0 .2-.1.3-.1h.2l.6-.1c.4 1.2.8 2.4 1.2 3.7.4 1.5.8 2.9 1.1 4.4.7 3 1.2 6 1.6 9 .4 3 .8 6.1 1.1 9.1.2 1.5.3 3.1.5 4.6.2 1.5.3 3.1.4 4.6.2-3.1.1-6.2-.1-9.2-.2-3.1-.5-6.1-.9-9.2-.4-3.1-1-6.1-1.8-9.1-.8-2.7-1.7-5.4-3-8h.2l3.9-2.9c.7-.5 1.2-.9 1.9-1.2.7-.4 1.4-.7 2.2-1 3-1.2 6-2.3 9.1-3.5l4.6-1.7c.8-.3 1.5-.6 2.3-.9l.6-.3.3-.2.2-.1c.3-.2.7-.4 1-.5 2.7-1.3 5.6-2.5 8.4-3.7.1 1.4.2 2.8.1 4.1 0 1.3-.1 2.5-.2 3.8-.2 1.2-.4 2.4-.7 3.7-.5 2.5-.9 5.1-1.4 7.6-.5 2.5-.8 5.1-1.3 7.6 0 .3 0 .6.2.8.3.4 1 .4 1.4.1 1.5-1.3 2.9-2.7 4.3-4.1s2.8-2.8 4.1-4.2c.7-.7 1.3-1.5 1.9-2.3l.9-1.2c.2-.4.5-.8.8-1.1l.5-.5c2.3 1.4 4.8 2.3 7.4 2.9.9.2 1.9.4 2.8.5.6 1.8 1.4 3.4 2.3 5l.6 1.2c.2.4.3.9.6 1.3.3.7.7 1.4 1.1 2.2-.1.3-.2.5-.3.9-.2 1.4-.1 2.8-.1 4.1l.2 4c.1 1.3 0 2.6 0 4 0 1.3 0 2.7.1 4l.1 4c.1 1.3.1 2.7.2 4 .1-1.3.2-2.7.3-4l.2-4c.1-2.7.2-5.3.1-8.1-.1-1.4-.2-2.7-.2-4-.1-1.3-.2-2.7-.1-3.9 0-.5.4-1.2.7-1.8l.9-1.8c.5-1.1 1.1-2.1 1.5-3.1.3.1.6 0 .7-.3l1-2.6c.1-.3.1-.5.2-.8 1.1.1 2.1 0 3.2-.2.9-.1 1.8-.4 2.7-.6-1.4 2.6-2.8 5.2-4.1 7.8-.7 1.4-1.6 2.6-2.4 4-.4.7-.8 1.5-.8 2.4 0 .8 0 1.6.1 2.4.2 3.1.5 6.2.7 9.3.1 1.5.1 3.1.1 4.6.1 1.6.1 3.1.2 4.7.2-3.1.4-6.2.4-9.4-.1-3.1-.3-6.2-.5-9.3-.1-.8-.1-1.6-.1-2.3 0-.7.3-1.3.6-2 .7-1.3 1.6-2.7 2.2-4.1 1.2-2.7 2.4-5.4 3.5-8.2.3-.1.6-.2.8-.2 1.2-.4 2.3-.9 3.3-1.6 1-.6 1.9-1.4 2.8-2.2-1.1.5-2 1.1-3.1 1.5-1.1.5-2.2 1-3.3 1.4-2.1.8-4.2 1.3-6.4 1.8.3-1.3.7-2.6 1-3.8.1-.4.2-.8.4-1 .2-.3.5-.5.8-.7l2.1-1.2c.7-.3 1.3-.7 2-1 .9-.1 1.8-.1 2.7.1.6.1 1.1.3 1.5.7.5.4.9.8 1.3 1.2l1 1c1.3 1.4 2.5 3 3.8 4.5 1.7 2 3.7 3.4 5.7 4.9 2 1.5 4.1 2.8 6.2 4.1.2.1.5.2.7.1.5-.1.9-.6.7-1.2-.5-2.2-1.1-4.4-1.6-6.6s-1.1-4.4-1.7-6.6c-.6-2.2-1.2-4.4-1.7-6.6-.4-1.9-.8-3.8-1-5.7 2.7 1.2 5.5 2.4 8 3.8.4.2.7.4 1 .6.1.1.3.2.6.3s.4.2.6.3c.8.4 1.5.6 2.3.9l4.6 1.7 4.6 1.7c1.5.6 3 1.1 4.5 1.8.7.3 1.5.6 2.1 1 .7.4 1.3.7 1.9 1.2l3.9 2.9.9.1h.2c.1 0 .2 0 .4.1s.5.3.6.4c.4.5.8 1.3 1.1 2 .7 1.5 1.2 3 1.8 4.5 1.1 3.1 2.1 6.2 2.6 9.4s.9 6.5 1.3 9.7l1.1 9.8h.2c.2-3.2 0-6.5-.3-9.7zm-89.2-28.1c-.4.4-.7.7-1 1.1-.3.4-.6.7-.9 1.1-.7.7-1.4 1.4-2.1 2-1.4 1.4-2.9 2.6-4.3 3.9l-2.3 2.1c.3-1.6.6-3.2.8-4.9.4-2.5.8-5.1 1.2-7.6.2-1.2.4-2.6.5-3.9.1-1.3.1-2.6 0-3.9-.1-1.6-.3-3.1-.6-4.6.2-.2.3-.5.2-.8l-.2-1.8c.5-.4 1-.9 1.5-1.3.6-.6 1.3-1.3 1.8-2.2.4-.8.7-1.6.9-2.3l.5 1.8c.5 1.8.9 3.7 1.6 5.5l2.2 5.3 1.1 2.6.6 1.3.3.7c.1.2.3.5.4.7.6.9 1.2 1.6 2 2.3l.1.1c-1.5.8-3 1.6-4.3 2.8zm8.8 2c-2.5-.6-5-1.2-7.6-1.9.9-1 2.1-1.9 3.2-2.6l.1.1c.1.1.1.1.3.2.2.1.4.1.4.1.3.1.6.1.8.1H93.7c.3.1.7.3 1 .5 1.3 1 2.3 2.7 3.4 4.2l.5.6c-1.2-.2-2.4-.3-3.7-.5-1.2-.3-2.5-.5-3.8-.8zm8.7 8.3c-.3.6-.7 1.1-1 1.7-.2.3-.3.6-.5.8-.1-.7-.3-1.5-.5-2.2-.1-.5-.3-.9-.4-1.4-.2-.5-.4-.9-.6-1.4-.9-1.6-1.9-3.2-3.1-4.6.4 0 .8.1 1.2.1 1.3.1 2.6 0 3.8-.2l2.8 3.9c0 .1.1.1.2.1l-1.9 3.2zm28.3-15.3.7 3.3c.5 2.2 1 4.4 1.5 6.7.4 1.4.7 2.9 1 4.3-1.4-.9-2.8-1.8-4.1-2.7l-3-2.1c-1-.7-1.9-1.5-2.7-2.3-1.7-1.8-3.4-3.6-5.3-5.2-.5-.4-1-.8-1.5-1.1-.6-.4-1.2-.6-1.9-.6-.8-.1-1.5 0-2.2.2 2.1-1.1 4.2-2.3 5.9-4 1.2-1.2 2-2.7 2.8-4.1.4-.7.8-1.5 1-2.3.2-.8.3-1.6.5-2.4l.8-4.9c.1-.4.1-.8.2-1.2l.3-1.2.2-.6c.1.3.1.6.2 1 .2.9.5 1.9.9 2.8.2.4.4.9.7 1.3.3.4.6.8 1 1.1.6.6 1.2 1.2 1.9 1.7l-.2 2c0 .2.1.5.3.6 0 2.1.2 4.2.5 6.3.1 1.2.3 2.3.5 3.4z" fill="#3b246d" stroke-width="none" opacity="1"></path></g><g id="svga-group-head" transform="matrix(0.9986295346632303,0.05233595798588117,-0.05233595798588117,0.9986295346632303,7.725760441629731,-5.034878324756505)"><g id="svga-group-ears-left-move" transform="matrix(1,0,0,1,3,0)"><g id="svga-group-ears-left"><path id="SvgjsPath11826" d="M64 93.7s-2.3-2.2-5-3.3-5.7.7-6.6 3.4 1.2 14 4.7 18.1 5.8 4.4 8.1 2.3c2.3-2 6.4-9.9-1.2-20.5z" fill="#fbd5c0" stroke-width="none" opacity="1"></path><path id="SvgjsPath11827" d="M65.2 95.3c.4.6.7 1.2 1.1 1.8.4.6.7 1.3 1 1.9.3.7.6 1.3.8 2 .2.7.5 1.4.6 2.2.1.4.1.8.2 1.1l.1 1.2c0 1.6-.2 3.1-.6 4.6-.5 1.5-1.1 2.8-2.1 3.9-.2.3-.5.5-.7.8-.3.2-.5.4-.8.6-.6.4-1.2.7-1.9.7-.7.1-1.4 0-2-.3s-1.2-.7-1.7-1.1-1-.9-1.5-1.5c-.5-.5-.9-1.1-1.3-1.7-1.5-2.5-2.4-5.3-3.2-8.1-.4-1.4-.7-2.8-1-4.3s-.5-2.9-.4-4.5c0-.4.1-.8.2-1.3.1-.2.1-.4.2-.6l.3-.5c.4-.7.9-1.2 1.4-1.7 1.1-.9 2.4-1.3 3.7-1.1.6.1 1.3.3 1.8.6.6.3 1.1.6 1.7 1 1.1.7 2.1 1.5 3.1 2.4l1 1.9zm-4.4-3.8c-.6-.3-1.1-.5-1.7-.7-.6-.2-1.1-.3-1.7-.3-1.1.1-2.2.5-3.1 1.3-.4.4-.8.8-1.1 1.4-.1.3-.3.5-.4.8-.1.3-.2.5-.2.9-.2 1.3-.1 2.8.1 4.2.2 1.4.4 2.9.7 4.3.7 2.8 1.7 5.6 3.3 7.7.8 1 1.8 1.9 2.7 2.7 1 .7 2.1 1.2 3.1 1 .5-.1 1-.3 1.5-.6s.9-.7 1.3-1.2c.7-1 1.4-2.1 1.7-3.4.4-1.3.6-2.6.7-4 0-1.4-.1-2.8-.4-4.2-.6-2.8-1.8-5.4-3.4-7.6-.9-1-2-1.7-3.1-2.3z" fill="#ecb99d" stroke-width="none" opacity="1"></path><path id="SvgjsPath11828" d="M55.9 93.3c3 .5 5 5.7 5.6 9.2.1.1.1.2.2.3.3.5-.4 1.1-.7.6-.4-.7-1-1.5-1.7-1.8-1.3-.5-2 1-1.7 2.5.4 1.7 1.5 2.8 2.5 4.1.1.1 0 .3-.1.2-1.6-1-4-4.5-2.9-6.7.8-1.6 2.1-1.3 3.2-.4-.7-2-1.3-4-2.8-5.5-.5-.5-1.4-1.3-2.1-1.2-1.2.2-1.2 2-1.3 3.1-.1 1.5.1 3.1.3 4.7 0 .2-.2.2-.2.1-.6-2.4-1.8-9.8 1.7-9.2z" fill="#dc9f7d" stroke-width="none" opacity="1"></path></g></g><g id="svga-group-ears-right-move" transform="matrix(1,0,0,1,-3,0)"><g id="svga-group-ears-right"><path id="SvgjsPath11829" d="M136 93.7s2.3-2.2 5-3.3 5.7.7 6.6 3.4-1.2 14-4.7 18.1-5.8 4.4-8.1 2.3c-2.3-2-6.4-9.9 1.2-20.5z" fill="#fbd5c0" stroke-width="none" opacity="1"></path><path id="SvgjsPath11830" d="M136 93.6c1-.9 2-1.7 3.1-2.4.5-.4 1.1-.7 1.7-1 .6-.3 1.2-.5 1.8-.6 1.3-.1 2.6.2 3.7 1.1.5.4 1 1 1.4 1.7l.3.5c.1.2.1.4.2.6.1.4.2.9.2 1.3.1 1.6-.2 3.1-.4 4.5-.3 1.5-.6 2.9-1 4.3-.8 2.8-1.7 5.6-3.2 8.1-.4.6-.8 1.1-1.3 1.7-.4.5-.9 1-1.5 1.5-.5.4-1.1.8-1.7 1.1-.6.3-1.3.4-2 .3s-1.3-.4-1.9-.7c-.3-.2-.6-.4-.8-.6-.3-.2-.5-.5-.7-.8-.9-1.1-1.6-2.5-2.1-3.9-.4-1.5-.7-3-.6-4.6l.1-1.2c0-.4.1-.8.2-1.1.1-.8.4-1.5.6-2.2.3-.7.5-1.4.8-2s.6-1.3 1-1.9.7-1.2 1.1-1.8l1-1.9zm0 .1c-1.6 2.2-2.8 4.9-3.4 7.6-.3 1.4-.4 2.8-.4 4.2 0 1.4.2 2.7.7 4 .4 1.3 1 2.4 1.7 3.4.4.5.8.9 1.3 1.2.5.3.9.6 1.5.6 1 .2 2.1-.3 3.1-1 1-.8 1.9-1.7 2.7-2.7 1.6-2.1 2.6-4.9 3.3-7.7.4-1.4.6-2.8.7-4.3.2-1.4.2-2.9.1-4.2 0-.3-.1-.6-.2-.9-.1-.3-.2-.6-.4-.8-.3-.5-.7-1-1.1-1.4-.9-.7-1.9-1.2-3.1-1.3-.6 0-1.1.1-1.7.3-.6.2-1.1.4-1.7.7-1 .7-2.1 1.4-3.1 2.3z" fill="#ecb99d" stroke-width="none" opacity="1"></path><path id="SvgjsPath11831" d="M144.1 93.3c-3 .5-5 5.7-5.6 9.2-.1.1-.1.2-.2.3-.3.5.4 1.1.7.6.4-.7 1-1.5 1.7-1.8 1.3-.5 2 1 1.7 2.5-.4 1.7-1.5 2.8-2.5 4.1-.1.1 0 .3.1.2 1.6-1 4-4.5 2.9-6.7-.8-1.6-2.1-1.3-3.2-.4.7-2 1.3-4 2.8-5.5.5-.5 1.4-1.3 2.1-1.2 1.2.2 1.2 2 1.3 3.1.1 1.5-.1 3.1-.3 4.7 0 .2.2.2.2.1.6-2.4 1.8-9.8-1.7-9.2z" fill="#dc9f7d" stroke-width="none" opacity="1"></path></g></g><g id="svga-group-faceshape-wrap" transform="matrix(0.9599996000000002,0,0,0.9997996000000002,4.001780282295215,0.01918862031095614)"><g id="svga-group-faceshape-single"><path id="SvgjsPath11858" d="M141 85.4c-1.2-28.5-19.61-43.51-40.91-43.51S60.2 57 59 85.4c0 0-.4 25.9 5.4 37.3 14.4 28.4 35.62 26.95 35.62 26.95s21.18 1.45 35.58-26.95c5.8-11.4 5.4-37.3 5.4-37.3z" fill="#fbd5c0" stroke-width="none" opacity="1"></path><path id="SvgjsPath11859" d="M135.6 122.7c5.8-11.4 5.49-37.32 5.49-37.32-1.2-28.5-19.79-44.08-41.09-44.08S60.2 57 59 85.4c0 0-.4 25.9 5.4 37.3 14.4 28.4 35.6 27.5 35.6 27.5s21.2.9 35.6-27.5zm-41.7 25.17c-2-.51-4-1.31-6-2.22-3.9-1.82-7.4-4.45-10.5-7.48-1.6-1.52-3-3.14-4.4-4.85 0 0-3.2-4.45-3.9-5.36-.3-.51-.6-.91-.9-1.42-.3-.51-.6-.91-.9-1.42l-1.8-3.24s-.9-2.12-1.1-2.63-.4-1.01-.5-1.62c-.2-.51-.3-1.11-.5-1.62-.6-2.12-1.1-4.35-1.5-6.57s-.8-4.45-1-6.78c-.6-4.55-.9-9.1-1.1-13.75v-3.34l.1-1.72c0-.61.1-1.11.1-1.72.1-1.11.3-2.22.4-3.44.1-.61.2-1.11.3-1.72 0 0 .3-1.31.4-1.62 1-4.45 2.5-8.8 4.8-12.64.5-1.01 1.2-1.92 1.8-2.83l1-1.31c.3-.4.7-.91 1.1-1.31 1.4-1.72 3-3.34 4.7-4.75 3.4-2.83 7.3-4.96 11.4-6.47 4.1-1.42 8.4-2.12 12.8-2.22 2.2-.1 11 1.11 11.3 1.21 4.91 1.22 9.7 3.54 13.3 5.97.9.61 1.8 1.31 2.6 2.02l1.3 1.11 1.2 1.11c1.6 1.62 3 3.34 4.3 5.16.3.51 1.9 2.83 1.9 2.83.3.51 1.6 3.03 1.6 3.03.5 1.01.9 2.12 1.4 3.14.4 1.11.8 2.12 1.1 3.24.4 1.11.6 2.22.9 3.34.1.61.7 3.34.7 3.34l.28 1.94c.1.61.18 2.74.18 2.74l.06.93s-.01 8.78-.31 12.32-.51 6.76-1.11 10.3c-.3 1.72-.7 3.54-1.1 5.26-.4 1.72-.9 3.44-1.5 5.06s-1.2 3.24-2 4.75l-1.3 2.22c-.4.81-.9 1.52-1.4 2.22-1.9 2.93-4 5.66-6.3 8.19s-4.8 4.85-7.5 6.88c-1.4 1.01-2.8 1.92-4.2 2.73-1.5.81-3 1.52-4.5 2.12-.4.2-2 .71-2.4.81-.8.2-1.6.4-2.4.61s-6.63.63-10.9-.53z" fill="#cd865f" stroke-width="none" opacity="1"></path></g></g><g id="svga-group-mouth-single-move" transform="matrix(1,0,0,1,0,-1)"><g id="svga-group-mouth-single" transform="matrix(0.9499998000000001,0,0,0.9499998000000001,4.9921332725913885,6.585211391704547)"><path id="SvgjsPath11813" d="M84.5 124.5c.2 0 5.6 6.5 8.5 8 2.9 1.4 9 2 12.5.7s9.5-9.1 9.5-9.1-6.4 1.8-9.9 2.2c-3.5.4-11.7-.2-15-.7s-5.6-1.1-5.6-1.1z" fill="#000000" stroke-width="none" opacity="1" transform="translate(0 3)"></path><path id="SvgjsPath11814" d="M90 125.6c-3.3-.5-5.5-1.1-5.5-1.1.1 0 1.7 1.9 3.6 3.8 2.2.9 5.1 2 7.5 2.4 4.6.7 10.4.2 15.2-2.1.3-.1.6-.3.8-.4 1.9-2.1 3.4-4 3.4-4s-6.4 1.8-9.9 2.2c-3.6.3-11.8-.3-15.1-.8z" fill="#ffffff" stroke-width="none" opacity="1" transform="translate(0 3)"></path><path id="SvgjsPath11815" d="M116.9 123.3c-.1-.1-.1-.2-.2-.3-.3-.3-.6-.6-1-.6-.3 0-.5.4-.3.6 0 .1.1.1.1.2-2.4.4-4.8 1.2-7.2 1.6-2.9.5-5.9.6-8.8.7-1.3.1-7.09-.46-8.69-.66-2.4-.4-4.61-.94-7.01-1.24v-.5c-.1-.1-.2-.2-.3-.2-.4 0-.5.3-.7.6-.2.3-.3.6-.4.8-.2.5.4.9.8.4.1-.1.2-.3.3-.4 3.1 2.3 5.2 5.4 8.1 7.7 2.8 2.3 5.8 2.9 9.4 3 3.5.1 6.8-.8 9.2-3.5 1.1-1.2 1.9-2.5 2.9-3.8s2.1-2.3 3.2-3.4c.1.2.2.4.4.5.2.1.4.1.5-.1.3-.2 0-1-.3-1.4zm-6.5 5.1c-2.7 3-5.5 4.3-9.6 4.6s-7.5-.4-10.5-3.3c-1.5-1.4-2.8-3.1-4.4-4.4 1.8.6 3.9.9 5.6 1.2 1.4.3 6.11.92 8.4.9 2.8.1 5.6-.5 8.4-1.1 1.7-.3 3.4-.7 5-1.2-1.1 1-2 2.3-2.9 3.3z" fill="#da7c87" stroke-width="none" opacity="1" transform="translate(0 3)"></path></g></g><g id="svga-group-eyes-left-move" transform="matrix(1,0,0,1,0,0)"><g id="svga-group-eyes-left"><g id="svga-group-eyesback-left"><path id="SvgjsPath11932" d="M92.1 98.1s-3.5 2.7-5.9 3.2c-2.4.5-6.1.8-9.4-.1-3.2-1-4.9-2.8-4.9-2.8s1.4-2.6 3.4-3.6 4.1-2.6 8.6-1.9 7.3 3.7 8.2 5.2z" fill="#ffffff" stroke-width="none" opacity="1"></path></g><g id="svga-group-eyesiriswrapper-left" transform="matrix(1,0,0,1,0,0)"><g id="svga-group-eyesiriscontrol-left" transform="matrix(1,0,0,1,0,0)"><g id="svga-group-eyesiris-left"><path id="SvgjsPath11894" d="M82 91.5c2.7 0 4.9 2.2 4.9 4.9s-2.2 4.9-4.9 4.9-4.9-2.2-4.9-4.9 2.2-4.9 4.9-4.9z" fill="#674415" stroke-width="none" opacity="1"></path><path id="SvgjsPath11895" d="M82 93.8c1.4 0 2.6 1.2 2.6 2.6S83.4 99 82 99s-2.6-1.2-2.6-2.6 1.2-2.6 2.6-2.6z" fill="#000000" stroke-width="none" opacity="1"></path><path id="SvgjsPath11896" d="m81.3 94.3-.5-.5c-.2-.2-.4-.3-.7-.3s-.5.1-.7.3c-.2.2-.3.4-.3.7s.1.5.3.7l.5.5c.2.2.4.3.7.3.2 0 .5-.1.7-.3.4-.5.4-1 0-1.4zm2.5 4.4c.8 0 .8-1.3 0-1.3s-.9 1.3 0 1.3z" fill="#ffffff" stroke-width="none" opacity="1"></path></g></g></g><g id="svga-group-eyesfront-left"><path id="SvgjsPath11940" d="M70.7 98c0 6.9 4.9 12.5 11 12.5s11-5.6 11-12.5-4.9-12.5-11-12.5-11 5.6-11 12.5zm1.2.4s1.4-2.6 3.4-3.6 4.1-2.6 8.6-1.9c4.5.7 7.2 3.6 8.2 5.1 0 0-3.5 2.7-5.9 3.2-2.4.5-6.1.8-9.4-.1-3.2-.9-4.9-2.7-4.9-2.7z" fill="#fbd5c0" stroke-width="none" opacity="1"></path><path id="SvgjsPath11941" d="M91 96.6s-2.7-3.5-7.8-3.9c-5.1-.5-9.4 2.8-11.3 5.7 0 0-2 .5-3.3-.7 0 0 2 .1 4.3-2.1 2.1-2.1 5.6-4 9.8-3.4 4.5.5 6.4 1.8 8.3 4.4z" fill="#ecb99d" stroke-width="none" opacity="1"></path><path id="SvgjsPath11942" d="M69.9 95.9c-.1-.1 0-.2.1-.2 1.2.7 2.2.7 3.3.2.4-.5.9-.9 1.4-1.3-1 0-2-.4-2.6-1.2-.1-.1.1-.2.1-.1.9.7 1.9 1.1 2.9 1 .6-.4 1.1-.7 1.8-1-.6-.3-1.1-.8-1.3-1.5 0-.1.1-.2.2-.1.4.6.9 1.1 1.6 1.4.7-.3 1.4-.5 2.1-.6-.1-.1-.2-.1-.2-.2-.2-.3-.5-.7-.5-1.1 0-.1.2-.2.3-.1.2.3.2.6.4.9.1.2.2.3.4.4 4.8-.7 10.1 1.5 12.6 6 .1.2-.2.4-.3.2-2.3-3.5-6.2-5.7-10.5-5.5-3.9.2-7.1 2.4-9.6 5.4 6.2 4.1 13.4 4 19.5-.2.1-.1.3.1.1.2-3.1 2.8-7.2 4-11.1 3.8-.1.1-.2.3-.2.4-.1.2-.1.3-.2.5-.1.1-.2.1-.2-.1 0-.3.1-.6.3-.9-.8-.1-1.6-.2-2.4-.4-.1.1-.3.2-.4.4-.1.2-.2.4-.4.6-.1.1-.2 0-.2-.1 0-.3.2-.5.3-.7.1-.1.2-.2.2-.3-.6-.2-1.3-.4-1.9-.7-.2.1-.4.2-.6.4l-.6.6c-.1.1-.2 0-.2-.1.2-.4.6-.8 1.1-1-.6-.3-1.2-.6-1.7-1-.2.1-.4.1-.6.3-.3.2-.5.4-.8.6-.1.1-.2 0-.2-.1.2-.5.8-.8 1.3-1-.4-.3-.9-.6-1.3-1l-.1.1c-.1.1-.3 0-.2-.2 0 0 0-.1.1-.1 0-.1 0-.1.1-.2.3-.6.6-1.2 1-1.8-1 .4-2.1.1-2.9-.6z" fill="#856121" stroke-width="none" opacity="1"></path></g></g></g><g id="svga-group-eyes-right-move" transform="matrix(1,0,0,1,0,0)"><g id="svga-group-eyes-right"><g id="svga-group-eyesback-right"><path id="SvgjsPath11933" d="M107.9 98.1s3.5 2.7 5.9 3.2c2.4.5 6.1.8 9.4-.1 3.2-1 4.9-2.8 4.9-2.8s-1.4-2.6-3.4-3.6-4.1-2.6-8.6-1.9-7.3 3.7-8.2 5.2z" fill="#ffffff" stroke-width="none" opacity="1"></path></g><g id="svga-group-eyesiriswrapper-right" transform="matrix(1,0,0,1,0,0)"><g id="svga-group-eyesiriscontrol-right" transform="matrix(1,0,0,1,0,0)"><g id="svga-group-eyesiris-right"><path id="SvgjsPath11897" d="M118 91.5c2.7 0 4.9 2.2 4.9 4.9s-2.2 4.9-4.9 4.9-4.9-2.2-4.9-4.9 2.2-4.9 4.9-4.9z" fill="#674415" stroke-width="none" opacity="1"></path><path id="SvgjsPath11898" d="M118 93.8c1.4 0 2.6 1.2 2.6 2.6S119.4 99 118 99s-2.6-1.2-2.6-2.6 1.2-2.6 2.6-2.6z" fill="#000000" stroke-width="none" opacity="1"></path><path id="SvgjsPath11899" d="m117.4 94.3-.5-.5c-.2-.2-.4-.3-.7-.3s-.5.1-.7.3c-.2.2-.3.4-.3.7s.1.5.3.7l.5.5c.2.2.4.3.7.3.2 0 .5-.1.7-.3.3-.5.4-1 0-1.4zm2.4 4.4c.8 0 .8-1.3 0-1.3s-.8 1.3 0 1.3z" fill="#ffffff" stroke-width="none" opacity="1"></path></g></g></g><g id="svga-group-eyesfront-right"><path id="SvgjsPath11943" d="M118.3 85.5c-6.1 0-11 5.6-11 12.5s4.9 12.5 11 12.5 11-5.6 11-12.5-5-12.5-11-12.5zm4.9 15.7c-3.2 1-7 .6-9.4.1-2.4-.5-5.9-3.2-5.9-3.2.9-1.5 3.6-4.4 8.2-5.1 4.5-.7 6.7.9 8.6 1.9 2 1 3.4 3.6 3.4 3.6s-1.7 1.7-4.9 2.7z" fill="#fbd5c0" stroke-width="none" opacity="1"></path><path id="SvgjsPath11946" d="M109 96.6s2.7-3.5 7.8-3.9c5.1-.5 9.4 2.8 11.3 5.7 0 0 2 .5 3.3-.7 0 0-2 .1-4.3-2.1-2.1-2.1-5.6-4-9.8-3.4-4.5.5-6.4 1.8-8.3 4.4z" fill="#ecb99d" stroke-width="none" opacity="1"></path><path id="SvgjsPath11947" d="M130.1 95.9c.1-.1 0-.2-.1-.2-1.2.7-2.2.7-3.3.2-.4-.5-.9-.9-1.4-1.3 1 0 2-.4 2.6-1.2.1-.1-.1-.2-.1-.1-.9.7-1.9 1.1-2.9 1-.6-.4-1.1-.7-1.8-1 .6-.3 1.1-.8 1.3-1.5 0-.1-.1-.2-.2-.1-.4.6-.9 1.1-1.6 1.4-.7-.3-1.4-.5-2.1-.6.1-.1.2-.1.2-.2.2-.3.5-.7.5-1.1 0-.1-.2-.2-.3-.1-.2.3-.2.6-.4.9-.1.2-.2.3-.4.4-4.8-.7-10.1 1.5-12.6 6-.1.2.2.4.3.2 2.3-3.5 6.2-5.7 10.5-5.5 3.9.2 7.1 2.4 9.6 5.4-6.2 4.1-13.4 4-19.5-.2-.1-.1-.3.1-.1.2 3.1 2.8 7.2 4 11.1 3.8.1.1.2.3.2.4.1.2.1.3.2.5.1.1.2.1.2-.1 0-.3-.1-.6-.3-.9.8-.1 1.6-.2 2.4-.4.1.1.3.2.4.4.1.2.2.4.4.6.1.1.2 0 .2-.1 0-.3-.2-.5-.3-.7-.1-.1-.2-.2-.2-.3.6-.2 1.3-.4 1.9-.7.2.1.4.2.6.4l.6.6c.1.1.2 0 .2-.1-.2-.4-.6-.8-1.1-1 .6-.3 1.2-.6 1.7-1 .2.1.4.1.6.3.3.2.5.4.8.6.1.1.2 0 .2-.1-.2-.5-.8-.8-1.3-1 .4-.3.9-.6 1.3-1l.1.1c.1.1.3 0 .2-.2 0 0 0-.1-.1-.1 0-.1 0-.1-.1-.2-.3-.6-.6-1.2-1-1.8 1 .4 2.1.1 2.9-.6z" fill="#856121" stroke-width="none" opacity="1"></path></g></g></g><g id="svga-group-facehighlight-single"></g><g id="svga-group-eyebrows-left-move" transform="matrix(1,0,0,1,0,1)"><g id="svga-group-eyebrows-left-rotate" transform="matrix(0.9825664732332883,-0.18591160716291474,0.18591160716291474,0.9825664732332883,-14.580344674206842,16.439815537111855)"><g id="svga-group-eyebrows-left"><path id="SvgjsPath11985" d="M68.8 86s.1 0 0 0c.1-.1.1-.1.1-.2.3-.6.9-1 1.4-1.3.6-.4 1.3-.9 1.9-1.3h.1c1.5-1.1 4-1.3 6-.8 1.9.2 3.8.8 5 1.3.1 0 .2.1.4.1 1.6.3 3.3.6 4.8 1.2 1.5.3 3 .5 4.4 1h.1c.1-.1.4 0 .4.2.1.2.1.4 0 .7.2 0 .3.1.3.3-.1.5-.3.9-.6 1.3v.1c-.3.8-.9 1.1-1.8 1-.1 0-.2 0-.4-.1-.1.1-.2.1-.3.1-1.6-.1-3.2-.8-4.6-1.4-.9-.4-1.9-.8-2.8-1.3-1.4-.2-2.8-.6-4.2-.9-1.3-.3-2.8-.3-4-.8-.4.1-.9.1-1.3.2-.3.1-.6.2-1 .2-1 .3-2.2.8-3.2.9h-.1c-.1 0-.1.1-.2.1-.2.2-.4.4-.7.5-.1 0-.3-.1-.3-.2 0-.5.3-.7.6-.9z" fill="#a46c47" stroke-width="none" opacity="1"></path><path id="SvgjsPath11986" d="M89.9 85.4c1.3.8 1.5 2.8 1.3 4.2 0 .3-.5.3-.6 0-.2-.7-.2-1.4-.3-2.1-.2-.6-.4-1.1-.7-1.7-.1-.3.1-.6.3-.4zm-3.2-.9c2.1.4 3.4 2.9 3.6 4.8 0 .2-.3.2-.3.1-.2-1-.6-1.9-1.2-2.7-.6-.8-1.4-1.3-2.2-2-.1-.1 0-.3.1-.2zM81 83.1c.9.2 1.9 1 2.6 1.7.7.7 1.3 1.5 1.5 2.4 0 .2-.2.3-.3.2-.5-.8-.9-1.6-1.7-2.2-.7-.6-1.6-1-2.2-1.8-.1-.2-.1-.3.1-.3zM76.3 82c2.3 0 4.7 2.1 5.4 4.2.1.2-.2.3-.3.1-.6-.9-1.2-1.8-2.1-2.5-.9-.7-1.9-1-3-1.4-.3-.1-.3-.4 0-.4zm-5.6 2.4c2.1-2.7 6.2-1.8 7.9.8.1.2-.2.4-.3.2-1-.9-2.1-1.9-3.5-2-1.5-.2-2.7.8-3.9 1.3-.3.1-.3-.2-.2-.3z" fill="#b38160" stroke-width="none" opacity="1"></path><path id="SvgjsPath11987" d="M92.1 90.3c1.6-.4 2-2.2 2-3.7 0-.3-.4-.3-.5-.1-.2.6-.4 1.3-.7 1.8-.3.5-.7.8-1.1 1 .4-1.2.2-2.6-.6-3.7.6.1 1.1.3 1.7.4.2 0 .3-.2.1-.3-2.7-1-5.6-1.6-8.3-2.4-2.4-.7-4.9-1.4-7.3-1.7-4.6-.6-7.6 2.4-10.3 5.7-.1.1-.2.2-.3.2-.4.3 0 .9.4.6 2.5-1.5 5-2.4 7.9-2.4 3.1.1 6.2 1.1 9.2 2.1 1.6.6 3.1 1.2 4.6 1.8 1 .6 2.1 1 3.2.7zm-20-6.8c1-.7 2.1-1 3.1-1.1.8.4 1.6.8 2.3 1.4.5.5.9 1.1 1.3 1.6-.1 0-.2-.1-.4-.1-3.4-.7-6.6-.4-9.5 1 1-1 2-2 3.2-2.8zm19.3 6c-.5 0-1.1-.1-1.7-.3-1.2-.4-2.4-1-3.6-1.5-.2-.1-.4-.1-.6-.2 0-.9-.3-1.8-.9-2.4-.1-.1-.3 0-.2.2.3.7.7 1.4.9 2.1-.8-.3-1.5-.6-2.3-.8-.7-1.5-2.1-3.1-3.6-3.8-.2-.1-.3.2-.2.3.6.6 1.3 1 1.9 1.7.5.5.9 1.1 1.3 1.7-1-.3-1.9-.6-2.9-.8-.2-.8-.9-1.6-1.5-2.1-.4-.4-1-.8-1.5-1.1.9 0 1.9.1 2.8.3 3.8.8 7.6 1.9 11.4 2.8.8 1.2 1 2.5.7 3.9z" fill="#955932" stroke-width="none" opacity="1"></path></g></g></g><g id="svga-group-eyebrows-right-move" transform="matrix(1,0,0,1,0,1)"><g id="svga-group-eyebrows-right-rotate" transform="matrix(0.9825664699885185,0.1859116243119344,-0.1859116243119344,0.9825664699885185,18.097239800438075,-20.73029538018774)"><g id="svga-group-eyebrows-right"><path id="SvgjsPath11988" d="M131.2 86s-.1 0 0 0c-.1-.1-.1-.1-.1-.2-.3-.6-.9-1-1.4-1.3-.6-.4-1.3-.9-1.9-1.3h-.1c-1.5-1.1-4-1.3-6-.8-1.9.2-3.8.8-5 1.3-.1 0-.2.1-.4.1-1.6.3-3.3.6-4.8 1.2-1.5.3-3 .5-4.4 1h-.1c-.1-.1-.4 0-.4.2-.1.2-.1.4 0 .7-.2 0-.3.1-.3.3.1.5.3.9.6 1.3v.1c.3.8.9 1.1 1.8 1 .1 0 .2 0 .4-.1.1.1.2.1.3.1 1.6-.1 3.2-.8 4.6-1.4.9-.4 1.9-.8 2.8-1.3 1.4-.2 2.8-.6 4.2-.9 1.3-.3 2.8-.3 4-.8.4.1.9.1 1.3.2.3.1.6.2 1 .2 1 .3 2.2.8 3.2.9h.1c.1 0 .1.1.2.1.2.2.4.4.7.5.1 0 .3-.1.3-.2 0-.5-.3-.7-.6-.9z" fill="#a46c47" stroke-width="none" opacity="1"></path><path id="SvgjsPath11989" d="M110.1 85.4c-1.3.8-1.5 2.8-1.3 4.2 0 .3.5.3.6 0 .2-.7.2-1.4.3-2.1.2-.6.4-1.1.7-1.7.1-.3-.1-.6-.3-.4zm3.2-.9c-2.1.4-3.4 2.9-3.6 4.8 0 .2.3.2.3.1.2-1 .6-1.9 1.2-2.7.6-.8 1.4-1.3 2.2-2 .1-.1 0-.3-.1-.2zm5.7-1.4c-.9.2-1.9 1-2.6 1.7-.7.7-1.3 1.5-1.5 2.4 0 .2.2.3.3.2.5-.8.9-1.6 1.7-2.2.7-.6 1.6-1 2.2-1.8.1-.2.1-.3-.1-.3zm4.7-1.1c-2.3 0-4.7 2.1-5.4 4.2-.1.2.2.3.3.1.6-.9 1.2-1.8 2.1-2.5.9-.7 1.9-1 3-1.4.3-.1.3-.4 0-.4zm5.6 2.4c-2.1-2.7-6.2-1.8-7.9.8-.1.2.2.4.3.2 1-.9 2.1-1.9 3.5-2 1.5-.2 2.7.8 4 1.3.2.1.2-.2.1-.3z" fill="#b38160" stroke-width="none" opacity="1"></path><path id="SvgjsPath11990" d="M111.1 89.8c1.5-.6 3.1-1.2 4.6-1.8 2.9-1 6.1-2.1 9.2-2.1 2.9-.1 5.5.9 7.9 2.4.4.2.8-.4.4-.6-.1-.1-.2-.2-.4-.2-2.7-3.3-5.7-6.2-10.3-5.7-2.5.3-4.9 1.1-7.3 1.7-2.8.8-5.6 1.4-8.3 2.4-.2.1-.1.3.1.3.6-.1 1.1-.2 1.7-.4-.8 1-1 2.5-.6 3.7-.4-.1-.8-.4-1.1-1-.3-.6-.4-1.2-.7-1.8-.1-.2-.5-.2-.5.1.1 1.4.5 3.2 2 3.7 1.2.1 2.3-.3 3.3-.7zm19.9-3.5c-3-1.4-6.2-1.7-9.5-1-.1 0-.2.1-.4.1.4-.5.8-1.1 1.3-1.6.7-.6 1.5-.9 2.3-1.4 1.1.1 2.1.5 3.1 1.1 1.3.8 2.3 1.8 3.2 2.8zm-21.6-.7c3.8-.9 7.6-2 11.4-2.8 1-.2 1.9-.3 2.8-.3-.6.3-1.1.7-1.5 1.1-.6.5-1.3 1.3-1.5 2.1-1 .2-2 .5-2.9.8.4-.6.8-1.2 1.3-1.7.6-.6 1.3-1.1 1.9-1.7.1-.1 0-.3-.2-.3-1.5.6-2.9 2.2-3.6 3.8-.8.2-1.6.5-2.3.8.2-.7.5-1.4.9-2.1.1-.2-.1-.3-.2-.2-.6.6-.9 1.6-.9 2.4-.2.1-.4.1-.6.2-1.2.5-2.4 1.1-3.6 1.5-.6.2-1.2.4-1.7.3-.4-1.4-.2-2.7.7-3.9z" fill="#955932" stroke-width="none" opacity="1"></path></g></g></g><g id="svga-group-nose-single-move" transform="matrix(1,0,0,1,0,0)"><g id="svga-group-nose-single"><path id="SvgjsPath11976" d="M104.93 107.57c-.14-.18-.45.05-.32.25.84 1.29 1.76 2.56 2.54 3.89.53.9 1.07 2.03.7 3.12-.61 1.79-2.18 1.68-3.45 1 .48-.61.75-1.33.69-2.12-.02-.19-.29-.37-.44-.18-1.26 1.59-2.06 3.25-4.41 3.34-2.48.1-4.08-1.91-4.73-4.07-.06-.19-.32-.14-.33.04-.07.99.25 1.95.79 2.76-.36.07-.73.14-1.09.16-1.15.07-1.34-.02-2.11-.98-.8-1.01-.81-1.27-.36-2.39.21-.53.52-.98.82-1.45.97-1.52 1.84-3.06 2.48-4.75 1.29-3.37 1.85-7.09 1.22-10.66-.03-.15-.26-.11-.27.04-.01 2.89-.19 5.74-1.04 8.52-.88 2.88-2.54 5.04-3.92 7.64-.72 1.35-1.02 3.12.21 4.28 1.22 1.15 3.1.78 4.52.24.85.92 2.02 1.56 3.26 1.67 1.4.12 3.23-.55 4.36-1.7 1.31 1.45 3.82.78 4.47-1.08 1.01-2.82-2.06-5.64-3.59-7.57z" fill="#cd865f" stroke-width="none" opacity="1" transform="translate(0 2)"></path><path id="SvgjsPath11977" d="M102 110.13c-.8-.75-2.07-.97-2.97-.27-.33.25-.52.57-.61.9-.16.05-.3.14-.44.27-.68.67-.39 1.71.19 2.34.5.53 1.31.78 2.02.75.88-.05 1.67-.46 2.16-1.2.57-.86.4-2.09-.35-2.79z" fill="#ffe1d0" stroke-width="none" opacity="1" transform="translate(0 2)"></path></g></g><g id="svga-group-hair-front" transform="matrix(0.9599996000000002,0,0,0.9997996000000002,3.5417134258132847,0.024375263021823912)"><path id="SvgjsPath12030" d="M143.1 79.3c-.9 7.7-2.8 15-4.8 18.6 0 0-.3-14.3-3.7-21.1S121.2 62.2 120 56.5c0 0 1.5 3.3 3.8 4.7s10.3 7.6 12.2 9.7 5 7.3 6.3 8c.1.1.5.2.8.4zm-76.2 56.4c0 .6-.2 2.2-.5 4.5-.7-6.6-2.1-13.9-2.1-13.9s-30.2 44.5-26.2 59.2c4 14.7 12.1 24.9 12.9 25.7.8.8 4 1.9 5.4 4.5.5 1 10.5-8.8 5.6-20.6-4.8-11.8-5.9-19.8-1.9-26 .7-1.1 1.3-2.3 1.9-3.5-.8 4.3-1.5 7.7-1.7 8.7-.9 3.5-.9 8.5 1.5 14s6.1 5.8 6.1 5.8c-1.7-2.7-1.8-7.3-.2-12.1s4.2-9.5 5.6-14.5c1.5-5.2 2.2-11.4-2.7-21.7-2.7-6.1-3.7-10.1-3.7-10.1z" fill="#9c623c" stroke-width="none" opacity="1"></path><path id="SvgjsPath12031" d="M120 56.5s-18.2 6.8-32.8 1.7-24 15.1-22.8 27.1 9.4 27.7 4.6 47.1c-4.8 19.4-18.8 34.2-22.8 42.8s-4 17.4 0 23.7 6 10.8 7.1 17.4c0 0-1.5-3.6-7.4-8-9.3-6.9-13.1-15.1-12.5-27.9s6.2-22.8 11.1-33.1c4.8-10.3 7.3-23.3 3.9-31.9-3.4-8.6-7.3-20.5-5.9-41.7 1.4-21.1 13.1-32.4 27.7-41s35.7-7 49.1 1.3 11.4 15.7 11.4 15.7 4-2 10 7.1 2 33.4-2.3 41.1c0 0-.3-14.3-3.7-21.1S121.2 62.2 120 56.5z" fill="#a46c47" stroke-width="none" opacity="1"></path><path id="SvgjsPath12032" d="M127.6 50.2c-2.3 1.5-4.7 1.5-6.1.8-4.1-1.8-7.4-8-10.8-11.7-5.7-6.2-7.2-9.4-20.3-10.1-9.3-.5-16.7 1.9-21 3.8-14.2 8.5-25.5 19.8-26.9 40.6-1.4 21.1 2.4 33.1 5.9 41.7s.9 21.6-3.9 31.9c-4.8 10.3-10.5 20.3-11.1 33.1s3.3 21 12.5 27.9c5.9 4.4 7.4 8 7.4 8-1.6-4.5-4-6.3-8.7-10.6-4.8-4.3-9.4-16.4-8.4-25.6s9.7-25 13.8-31.4c4.1-6.4 7.4-17.4 8.8-23.3 1.4-5.9.2-10.8-3.9-20.9s-6.3-36.5-5.6-41c1.1-8.3 3.1-14 9.4-20.6 9.4-9.8 21.6-11.3 28.9-11.4 11.8-.1 20 7.7 21.5 9.9s10.5 11.9 12.8 12.3c2.3.4 8-3.4 8-3.4l.7-.6s.3-1 0-2.6c-.5.9-1.5 2.2-3 3.2zM102.2 60c.3 0 .7 0 1-.1.2 0 .5 0 .8-.1.4 0 .9-.1 1.3-.1.2 0 .5-.1.8-.1.3 0 .7-.1 1-.1.3 0 .6-.1.9-.1.3 0 .6-.1.9-.1.2 0 .4-.1.6-.1.4-.1.8-.2 1.2-.2.2 0 .4-.1.6-.1.4-.1.8-.2 1.1-.2.2 0 .3-.1.4-.1.3-.1.6-.2.9-.2.1 0 .2 0 .3-.1.4-.1.8-.2 1.1-.3.1 0 .2 0 .3-.1.4-.1.7-.2 1.1-.3 2.2-.6 3.5-1.1 3.5-1.1s-5 .6-10.9-5.5c-2.3-3.7-6.1-10.5-12-12.8-6.8-2.7-29.5-3.9-37.2 12.5s-2.7 30.5.6 37.4c3.3 6.9 8.5 20.1 8.3 28.7-.2 8.7-2.3 21-4.6 26.4-2.3 5.4-17.6 24.4-20.8 33.3-3.3 9.3-4.4 15.6 3.5 28.3 3 4.9 5 6.3 5.8 8.1-1.2-5-3.1-9-6.5-14.2-4-6.3-4-15.1 0-23.7s18-23.4 22.8-42.8-3.4-35.1-4.6-47.1S72.7 52.9 87.2 58c1.9.7 3.9 1.1 5.8 1.4h.1c.2 0 .4.1.7.1.4 0 .8.1 1.2.1.3 0 .6 0 .8.1.4 0 .8.1 1.3.1h4.1c.3.3.7.3 1 .2z" fill="#9c623c" stroke-width="none" opacity="1"></path><path id="SvgjsPath12033" d="M63.3 148.6s-2.6 6.6-9.3 14.7c-8.9 10.7-10.7 17.4-7.4 25.8 3.3 8.4 7.8 12.8 9.3 16.5s1.1 7.6 1.1 7.6 1.9-4.1 1.1-7.2c-.7-3.1-7.4-13.9-8.4-20s.1-12.9 4.2-18.7c3.5-4.9 7.6-11.6 9.4-18.7zm1.9 1.5s-2.5 11.6-6 17.4c-3.5 5.8-4.6 13-2 19.1 2.6 6.1 7.6 14.1 7.2 19.4 0 0 3.4-6.4.2-13s-4.3-16.4-1.7-23.1c2.6-6.6 2.9-15.2 2.3-19.8z" fill="#a46c47" stroke-width="none" opacity="1"></path><path id="SvgjsPath12034" d="M93.1 59.7c.3 0 .5.1.7.1.4 0 .8.1 1.2.1.3 0 .6 0 .8.1.4 0 .8.1 1.3.1h1.5c-2.4-1-5.2-2.6-7.6-5.4-4.8-5.9-8.5-8.6-16.2-7.8S59 58.1 59.5 69c.5 10.8 4 17.7 6.2 23.6-.6-2.6-1.1-5-1.3-7.3-1.1-12 8.3-32.2 22.8-27.1 2 .7 3.9 1.1 5.9 1.5z" fill="#955932" stroke-width="none" opacity="1"></path></g><g id="svga-group-glasses-single-move" transform="matrix(1,0,0,1,0,0)"><g id="svga-group-glasses-single" transform="matrix(1.0500002000000002,0,0,1.0500002000000002,0,0)"></g></g></g></g></g><rect id="svga-credit-rect" width="200" height="15" x="0" y="185" fill="#ecf0f1" opacity="0.5" style="display: none;"></rect><text id="svga-credit-text" font-family="Avenir Next, Roboto, Helvetica, Arial, sans-serif" font-size="10px" text-anchor="start" font-weight="400" size="10px" anchor="start" weight="400" fill="#333333" x="32.83451843261719" y="182.73141598701477" style="display: none;"><tspan id="SvgjsTspan11807" dy="13" x="32.83451843261719">Created on AvatarMaker.com</tspan></text></g><defs id="SvgjsDefs11759"></defs></svg>